<?xml version="1.0" encoding="UTF-8" standalone="no"?>
<svg>
<metadata>built for 'CodeUS' braille table on Sun Dec 07 11:53:10 CET 2014</metadata>
<defs>
<font horiz-adv-x="625" id="Braille-CodeUS" vert-adv-y="">
<font-face ascent="630" descent="-250" font-family="Braille" font-stretch="normal" font-weight="normal" units-per-em="1024"/>
<missing-glyph/>
<glyph d="M 65 565 m -16, 0 a 16,16 0 1,1 32,0 a 16,16 0 1,1 -32,0 z M 65 315 m -16, 0 a 16,16 0 1,1 32,0 a 16,16 0 1,1 -32,0 z M 65 65 m -16, 0 a 16,16 0 1,1 32,0 a 16,16 0 1,1 -32,0 z M 315 565 m -16, 0 a 16,16 0 1,1 32,0 a 16,16 0 1,1 -32,0 z M 315 315 m -16, 0 a 16,16 0 1,1 32,0 a 16,16 0 1,1 -32,0 z M 315 65 m -16, 0 a 16,16 0 1,1 32,0 a 16,16 0 1,1 -32,0 z " horiz-adv-x="625" unicode=" "/>
<glyph d="M 65 565 m -65, 0 a 65,65 0 1,1 130,0 a 65,65 0 1,1 -130,0 z M 65 315 m -16, 0 a 16,16 0 1,1 32,0 a 16,16 0 1,1 -32,0 z M 65 65 m -16, 0 a 16,16 0 1,1 32,0 a 16,16 0 1,1 -32,0 z M 315 565 m -16, 0 a 16,16 0 1,1 32,0 a 16,16 0 1,1 -32,0 z M 315 315 m -16, 0 a 16,16 0 1,1 32,0 a 16,16 0 1,1 -32,0 z M 315 65 m -16, 0 a 16,16 0 1,1 32,0 a 16,16 0 1,1 -32,0 z " horiz-adv-x="625" unicode="A"/>
<glyph d="M 65 565 m -16, 0 a 16,16 0 1,1 32,0 a 16,16 0 1,1 -32,0 z M 65 315 m -65, 0 a 65,65 0 1,1 130,0 a 65,65 0 1,1 -130,0 z M 65 65 m -16, 0 a 16,16 0 1,1 32,0 a 16,16 0 1,1 -32,0 z M 315 565 m -16, 0 a 16,16 0 1,1 32,0 a 16,16 0 1,1 -32,0 z M 315 315 m -16, 0 a 16,16 0 1,1 32,0 a 16,16 0 1,1 -32,0 z M 315 65 m -16, 0 a 16,16 0 1,1 32,0 a 16,16 0 1,1 -32,0 z " horiz-adv-x="625" unicode="1"/>
<glyph d="M 65 565 m -65, 0 a 65,65 0 1,1 130,0 a 65,65 0 1,1 -130,0 z M 65 315 m -65, 0 a 65,65 0 1,1 130,0 a 65,65 0 1,1 -130,0 z M 65 65 m -16, 0 a 16,16 0 1,1 32,0 a 16,16 0 1,1 -32,0 z M 315 565 m -16, 0 a 16,16 0 1,1 32,0 a 16,16 0 1,1 -32,0 z M 315 315 m -16, 0 a 16,16 0 1,1 32,0 a 16,16 0 1,1 -32,0 z M 315 65 m -16, 0 a 16,16 0 1,1 32,0 a 16,16 0 1,1 -32,0 z " horiz-adv-x="625" unicode="B"/>
<glyph d="M 65 565 m -16, 0 a 16,16 0 1,1 32,0 a 16,16 0 1,1 -32,0 z M 65 315 m -16, 0 a 16,16 0 1,1 32,0 a 16,16 0 1,1 -32,0 z M 65 65 m -65, 0 a 65,65 0 1,1 130,0 a 65,65 0 1,1 -130,0 z M 315 565 m -16, 0 a 16,16 0 1,1 32,0 a 16,16 0 1,1 -32,0 z M 315 315 m -16, 0 a 16,16 0 1,1 32,0 a 16,16 0 1,1 -32,0 z M 315 65 m -16, 0 a 16,16 0 1,1 32,0 a 16,16 0 1,1 -32,0 z " horiz-adv-x="625" unicode="'"/>
<glyph d="M 65 565 m -65, 0 a 65,65 0 1,1 130,0 a 65,65 0 1,1 -130,0 z M 65 315 m -16, 0 a 16,16 0 1,1 32,0 a 16,16 0 1,1 -32,0 z M 65 65 m -65, 0 a 65,65 0 1,1 130,0 a 65,65 0 1,1 -130,0 z M 315 565 m -16, 0 a 16,16 0 1,1 32,0 a 16,16 0 1,1 -32,0 z M 315 315 m -16, 0 a 16,16 0 1,1 32,0 a 16,16 0 1,1 -32,0 z M 315 65 m -16, 0 a 16,16 0 1,1 32,0 a 16,16 0 1,1 -32,0 z " horiz-adv-x="625" unicode="K"/>
<glyph d="M 65 565 m -16, 0 a 16,16 0 1,1 32,0 a 16,16 0 1,1 -32,0 z M 65 315 m -65, 0 a 65,65 0 1,1 130,0 a 65,65 0 1,1 -130,0 z M 65 65 m -65, 0 a 65,65 0 1,1 130,0 a 65,65 0 1,1 -130,0 z M 315 565 m -16, 0 a 16,16 0 1,1 32,0 a 16,16 0 1,1 -32,0 z M 315 315 m -16, 0 a 16,16 0 1,1 32,0 a 16,16 0 1,1 -32,0 z M 315 65 m -16, 0 a 16,16 0 1,1 32,0 a 16,16 0 1,1 -32,0 z " horiz-adv-x="625" unicode="2"/>
<glyph d="M 65 565 m -65, 0 a 65,65 0 1,1 130,0 a 65,65 0 1,1 -130,0 z M 65 315 m -65, 0 a 65,65 0 1,1 130,0 a 65,65 0 1,1 -130,0 z M 65 65 m -65, 0 a 65,65 0 1,1 130,0 a 65,65 0 1,1 -130,0 z M 315 565 m -16, 0 a 16,16 0 1,1 32,0 a 16,16 0 1,1 -32,0 z M 315 315 m -16, 0 a 16,16 0 1,1 32,0 a 16,16 0 1,1 -32,0 z M 315 65 m -16, 0 a 16,16 0 1,1 32,0 a 16,16 0 1,1 -32,0 z " horiz-adv-x="625" unicode="L"/>
<glyph d="M 65 565 m -16, 0 a 16,16 0 1,1 32,0 a 16,16 0 1,1 -32,0 z M 65 315 m -16, 0 a 16,16 0 1,1 32,0 a 16,16 0 1,1 -32,0 z M 65 65 m -16, 0 a 16,16 0 1,1 32,0 a 16,16 0 1,1 -32,0 z M 315 565 m -65, 0 a 65,65 0 1,1 130,0 a 65,65 0 1,1 -130,0 z M 315 315 m -16, 0 a 16,16 0 1,1 32,0 a 16,16 0 1,1 -32,0 z M 315 65 m -16, 0 a 16,16 0 1,1 32,0 a 16,16 0 1,1 -32,0 z " horiz-adv-x="625" unicode="@"/>
<glyph d="M 65 565 m -65, 0 a 65,65 0 1,1 130,0 a 65,65 0 1,1 -130,0 z M 65 315 m -16, 0 a 16,16 0 1,1 32,0 a 16,16 0 1,1 -32,0 z M 65 65 m -16, 0 a 16,16 0 1,1 32,0 a 16,16 0 1,1 -32,0 z M 315 565 m -65, 0 a 65,65 0 1,1 130,0 a 65,65 0 1,1 -130,0 z M 315 315 m -16, 0 a 16,16 0 1,1 32,0 a 16,16 0 1,1 -32,0 z M 315 65 m -16, 0 a 16,16 0 1,1 32,0 a 16,16 0 1,1 -32,0 z " horiz-adv-x="625" unicode="C"/>
<glyph d="M 65 565 m -16, 0 a 16,16 0 1,1 32,0 a 16,16 0 1,1 -32,0 z M 65 315 m -65, 0 a 65,65 0 1,1 130,0 a 65,65 0 1,1 -130,0 z M 65 65 m -16, 0 a 16,16 0 1,1 32,0 a 16,16 0 1,1 -32,0 z M 315 565 m -65, 0 a 65,65 0 1,1 130,0 a 65,65 0 1,1 -130,0 z M 315 315 m -16, 0 a 16,16 0 1,1 32,0 a 16,16 0 1,1 -32,0 z M 315 65 m -16, 0 a 16,16 0 1,1 32,0 a 16,16 0 1,1 -32,0 z " horiz-adv-x="625" unicode="I"/>
<glyph d="M 65 565 m -65, 0 a 65,65 0 1,1 130,0 a 65,65 0 1,1 -130,0 z M 65 315 m -65, 0 a 65,65 0 1,1 130,0 a 65,65 0 1,1 -130,0 z M 65 65 m -16, 0 a 16,16 0 1,1 32,0 a 16,16 0 1,1 -32,0 z M 315 565 m -65, 0 a 65,65 0 1,1 130,0 a 65,65 0 1,1 -130,0 z M 315 315 m -16, 0 a 16,16 0 1,1 32,0 a 16,16 0 1,1 -32,0 z M 315 65 m -16, 0 a 16,16 0 1,1 32,0 a 16,16 0 1,1 -32,0 z " horiz-adv-x="625" unicode="F"/>
<glyph d="M 65 565 m -16, 0 a 16,16 0 1,1 32,0 a 16,16 0 1,1 -32,0 z M 65 315 m -16, 0 a 16,16 0 1,1 32,0 a 16,16 0 1,1 -32,0 z M 65 65 m -65, 0 a 65,65 0 1,1 130,0 a 65,65 0 1,1 -130,0 z M 315 565 m -65, 0 a 65,65 0 1,1 130,0 a 65,65 0 1,1 -130,0 z M 315 315 m -16, 0 a 16,16 0 1,1 32,0 a 16,16 0 1,1 -32,0 z M 315 65 m -16, 0 a 16,16 0 1,1 32,0 a 16,16 0 1,1 -32,0 z " horiz-adv-x="625" unicode="/"/>
<glyph d="M 65 565 m -65, 0 a 65,65 0 1,1 130,0 a 65,65 0 1,1 -130,0 z M 65 315 m -16, 0 a 16,16 0 1,1 32,0 a 16,16 0 1,1 -32,0 z M 65 65 m -65, 0 a 65,65 0 1,1 130,0 a 65,65 0 1,1 -130,0 z M 315 565 m -65, 0 a 65,65 0 1,1 130,0 a 65,65 0 1,1 -130,0 z M 315 315 m -16, 0 a 16,16 0 1,1 32,0 a 16,16 0 1,1 -32,0 z M 315 65 m -16, 0 a 16,16 0 1,1 32,0 a 16,16 0 1,1 -32,0 z " horiz-adv-x="625" unicode="M"/>
<glyph d="M 65 565 m -16, 0 a 16,16 0 1,1 32,0 a 16,16 0 1,1 -32,0 z M 65 315 m -65, 0 a 65,65 0 1,1 130,0 a 65,65 0 1,1 -130,0 z M 65 65 m -65, 0 a 65,65 0 1,1 130,0 a 65,65 0 1,1 -130,0 z M 315 565 m -65, 0 a 65,65 0 1,1 130,0 a 65,65 0 1,1 -130,0 z M 315 315 m -16, 0 a 16,16 0 1,1 32,0 a 16,16 0 1,1 -32,0 z M 315 65 m -16, 0 a 16,16 0 1,1 32,0 a 16,16 0 1,1 -32,0 z " horiz-adv-x="625" unicode="S"/>
<glyph d="M 65 565 m -65, 0 a 65,65 0 1,1 130,0 a 65,65 0 1,1 -130,0 z M 65 315 m -65, 0 a 65,65 0 1,1 130,0 a 65,65 0 1,1 -130,0 z M 65 65 m -65, 0 a 65,65 0 1,1 130,0 a 65,65 0 1,1 -130,0 z M 315 565 m -65, 0 a 65,65 0 1,1 130,0 a 65,65 0 1,1 -130,0 z M 315 315 m -16, 0 a 16,16 0 1,1 32,0 a 16,16 0 1,1 -32,0 z M 315 65 m -16, 0 a 16,16 0 1,1 32,0 a 16,16 0 1,1 -32,0 z " horiz-adv-x="625" unicode="P"/>
<glyph d="M 65 565 m -16, 0 a 16,16 0 1,1 32,0 a 16,16 0 1,1 -32,0 z M 65 315 m -16, 0 a 16,16 0 1,1 32,0 a 16,16 0 1,1 -32,0 z M 65 65 m -16, 0 a 16,16 0 1,1 32,0 a 16,16 0 1,1 -32,0 z M 315 565 m -16, 0 a 16,16 0 1,1 32,0 a 16,16 0 1,1 -32,0 z M 315 315 m -65, 0 a 65,65 0 1,1 130,0 a 65,65 0 1,1 -130,0 z M 315 65 m -16, 0 a 16,16 0 1,1 32,0 a 16,16 0 1,1 -32,0 z " horiz-adv-x="625" unicode="&quot;"/>
<glyph d="M 65 565 m -65, 0 a 65,65 0 1,1 130,0 a 65,65 0 1,1 -130,0 z M 65 315 m -16, 0 a 16,16 0 1,1 32,0 a 16,16 0 1,1 -32,0 z M 65 65 m -16, 0 a 16,16 0 1,1 32,0 a 16,16 0 1,1 -32,0 z M 315 565 m -16, 0 a 16,16 0 1,1 32,0 a 16,16 0 1,1 -32,0 z M 315 315 m -65, 0 a 65,65 0 1,1 130,0 a 65,65 0 1,1 -130,0 z M 315 65 m -16, 0 a 16,16 0 1,1 32,0 a 16,16 0 1,1 -32,0 z " horiz-adv-x="625" unicode="E"/>
<glyph d="M 65 565 m -16, 0 a 16,16 0 1,1 32,0 a 16,16 0 1,1 -32,0 z M 65 315 m -65, 0 a 65,65 0 1,1 130,0 a 65,65 0 1,1 -130,0 z M 65 65 m -16, 0 a 16,16 0 1,1 32,0 a 16,16 0 1,1 -32,0 z M 315 565 m -16, 0 a 16,16 0 1,1 32,0 a 16,16 0 1,1 -32,0 z M 315 315 m -65, 0 a 65,65 0 1,1 130,0 a 65,65 0 1,1 -130,0 z M 315 65 m -16, 0 a 16,16 0 1,1 32,0 a 16,16 0 1,1 -32,0 z " horiz-adv-x="625" unicode="3"/>
<glyph d="M 65 565 m -65, 0 a 65,65 0 1,1 130,0 a 65,65 0 1,1 -130,0 z M 65 315 m -65, 0 a 65,65 0 1,1 130,0 a 65,65 0 1,1 -130,0 z M 65 65 m -16, 0 a 16,16 0 1,1 32,0 a 16,16 0 1,1 -32,0 z M 315 565 m -16, 0 a 16,16 0 1,1 32,0 a 16,16 0 1,1 -32,0 z M 315 315 m -65, 0 a 65,65 0 1,1 130,0 a 65,65 0 1,1 -130,0 z M 315 65 m -16, 0 a 16,16 0 1,1 32,0 a 16,16 0 1,1 -32,0 z " horiz-adv-x="625" unicode="H"/>
<glyph d="M 65 565 m -16, 0 a 16,16 0 1,1 32,0 a 16,16 0 1,1 -32,0 z M 65 315 m -16, 0 a 16,16 0 1,1 32,0 a 16,16 0 1,1 -32,0 z M 65 65 m -65, 0 a 65,65 0 1,1 130,0 a 65,65 0 1,1 -130,0 z M 315 565 m -16, 0 a 16,16 0 1,1 32,0 a 16,16 0 1,1 -32,0 z M 315 315 m -65, 0 a 65,65 0 1,1 130,0 a 65,65 0 1,1 -130,0 z M 315 65 m -16, 0 a 16,16 0 1,1 32,0 a 16,16 0 1,1 -32,0 z " horiz-adv-x="625" unicode="9"/>
<glyph d="M 65 565 m -65, 0 a 65,65 0 1,1 130,0 a 65,65 0 1,1 -130,0 z M 65 315 m -16, 0 a 16,16 0 1,1 32,0 a 16,16 0 1,1 -32,0 z M 65 65 m -65, 0 a 65,65 0 1,1 130,0 a 65,65 0 1,1 -130,0 z M 315 565 m -16, 0 a 16,16 0 1,1 32,0 a 16,16 0 1,1 -32,0 z M 315 315 m -65, 0 a 65,65 0 1,1 130,0 a 65,65 0 1,1 -130,0 z M 315 65 m -16, 0 a 16,16 0 1,1 32,0 a 16,16 0 1,1 -32,0 z " horiz-adv-x="625" unicode="O"/>
<glyph d="M 65 565 m -16, 0 a 16,16 0 1,1 32,0 a 16,16 0 1,1 -32,0 z M 65 315 m -65, 0 a 65,65 0 1,1 130,0 a 65,65 0 1,1 -130,0 z M 65 65 m -65, 0 a 65,65 0 1,1 130,0 a 65,65 0 1,1 -130,0 z M 315 565 m -16, 0 a 16,16 0 1,1 32,0 a 16,16 0 1,1 -32,0 z M 315 315 m -65, 0 a 65,65 0 1,1 130,0 a 65,65 0 1,1 -130,0 z M 315 65 m -16, 0 a 16,16 0 1,1 32,0 a 16,16 0 1,1 -32,0 z " horiz-adv-x="625" unicode="6"/>
<glyph d="M 65 565 m -65, 0 a 65,65 0 1,1 130,0 a 65,65 0 1,1 -130,0 z M 65 315 m -65, 0 a 65,65 0 1,1 130,0 a 65,65 0 1,1 -130,0 z M 65 65 m -65, 0 a 65,65 0 1,1 130,0 a 65,65 0 1,1 -130,0 z M 315 565 m -16, 0 a 16,16 0 1,1 32,0 a 16,16 0 1,1 -32,0 z M 315 315 m -65, 0 a 65,65 0 1,1 130,0 a 65,65 0 1,1 -130,0 z M 315 65 m -16, 0 a 16,16 0 1,1 32,0 a 16,16 0 1,1 -32,0 z " horiz-adv-x="625" unicode="R"/>
<glyph d="M 65 565 m -16, 0 a 16,16 0 1,1 32,0 a 16,16 0 1,1 -32,0 z M 65 315 m -16, 0 a 16,16 0 1,1 32,0 a 16,16 0 1,1 -32,0 z M 65 65 m -16, 0 a 16,16 0 1,1 32,0 a 16,16 0 1,1 -32,0 z M 315 565 m -65, 0 a 65,65 0 1,1 130,0 a 65,65 0 1,1 -130,0 z M 315 315 m -65, 0 a 65,65 0 1,1 130,0 a 65,65 0 1,1 -130,0 z M 315 65 m -16, 0 a 16,16 0 1,1 32,0 a 16,16 0 1,1 -32,0 z " horiz-adv-x="625" unicode="^"/>
<glyph d="M 65 565 m -65, 0 a 65,65 0 1,1 130,0 a 65,65 0 1,1 -130,0 z M 65 315 m -16, 0 a 16,16 0 1,1 32,0 a 16,16 0 1,1 -32,0 z M 65 65 m -16, 0 a 16,16 0 1,1 32,0 a 16,16 0 1,1 -32,0 z M 315 565 m -65, 0 a 65,65 0 1,1 130,0 a 65,65 0 1,1 -130,0 z M 315 315 m -65, 0 a 65,65 0 1,1 130,0 a 65,65 0 1,1 -130,0 z M 315 65 m -16, 0 a 16,16 0 1,1 32,0 a 16,16 0 1,1 -32,0 z " horiz-adv-x="625" unicode="D"/>
<glyph d="M 65 565 m -16, 0 a 16,16 0 1,1 32,0 a 16,16 0 1,1 -32,0 z M 65 315 m -65, 0 a 65,65 0 1,1 130,0 a 65,65 0 1,1 -130,0 z M 65 65 m -16, 0 a 16,16 0 1,1 32,0 a 16,16 0 1,1 -32,0 z M 315 565 m -65, 0 a 65,65 0 1,1 130,0 a 65,65 0 1,1 -130,0 z M 315 315 m -65, 0 a 65,65 0 1,1 130,0 a 65,65 0 1,1 -130,0 z M 315 65 m -16, 0 a 16,16 0 1,1 32,0 a 16,16 0 1,1 -32,0 z " horiz-adv-x="625" unicode="J"/>
<glyph d="M 65 565 m -65, 0 a 65,65 0 1,1 130,0 a 65,65 0 1,1 -130,0 z M 65 315 m -65, 0 a 65,65 0 1,1 130,0 a 65,65 0 1,1 -130,0 z M 65 65 m -16, 0 a 16,16 0 1,1 32,0 a 16,16 0 1,1 -32,0 z M 315 565 m -65, 0 a 65,65 0 1,1 130,0 a 65,65 0 1,1 -130,0 z M 315 315 m -65, 0 a 65,65 0 1,1 130,0 a 65,65 0 1,1 -130,0 z M 315 65 m -16, 0 a 16,16 0 1,1 32,0 a 16,16 0 1,1 -32,0 z " horiz-adv-x="625" unicode="G"/>
<glyph d="M 65 565 m -16, 0 a 16,16 0 1,1 32,0 a 16,16 0 1,1 -32,0 z M 65 315 m -16, 0 a 16,16 0 1,1 32,0 a 16,16 0 1,1 -32,0 z M 65 65 m -65, 0 a 65,65 0 1,1 130,0 a 65,65 0 1,1 -130,0 z M 315 565 m -65, 0 a 65,65 0 1,1 130,0 a 65,65 0 1,1 -130,0 z M 315 315 m -65, 0 a 65,65 0 1,1 130,0 a 65,65 0 1,1 -130,0 z M 315 65 m -16, 0 a 16,16 0 1,1 32,0 a 16,16 0 1,1 -32,0 z " horiz-adv-x="625" unicode="&gt;"/>
<glyph d="M 65 565 m -65, 0 a 65,65 0 1,1 130,0 a 65,65 0 1,1 -130,0 z M 65 315 m -16, 0 a 16,16 0 1,1 32,0 a 16,16 0 1,1 -32,0 z M 65 65 m -65, 0 a 65,65 0 1,1 130,0 a 65,65 0 1,1 -130,0 z M 315 565 m -65, 0 a 65,65 0 1,1 130,0 a 65,65 0 1,1 -130,0 z M 315 315 m -65, 0 a 65,65 0 1,1 130,0 a 65,65 0 1,1 -130,0 z M 315 65 m -16, 0 a 16,16 0 1,1 32,0 a 16,16 0 1,1 -32,0 z " horiz-adv-x="625" unicode="N"/>
<glyph d="M 65 565 m -16, 0 a 16,16 0 1,1 32,0 a 16,16 0 1,1 -32,0 z M 65 315 m -65, 0 a 65,65 0 1,1 130,0 a 65,65 0 1,1 -130,0 z M 65 65 m -65, 0 a 65,65 0 1,1 130,0 a 65,65 0 1,1 -130,0 z M 315 565 m -65, 0 a 65,65 0 1,1 130,0 a 65,65 0 1,1 -130,0 z M 315 315 m -65, 0 a 65,65 0 1,1 130,0 a 65,65 0 1,1 -130,0 z M 315 65 m -16, 0 a 16,16 0 1,1 32,0 a 16,16 0 1,1 -32,0 z " horiz-adv-x="625" unicode="T"/>
<glyph d="M 65 565 m -65, 0 a 65,65 0 1,1 130,0 a 65,65 0 1,1 -130,0 z M 65 315 m -65, 0 a 65,65 0 1,1 130,0 a 65,65 0 1,1 -130,0 z M 65 65 m -65, 0 a 65,65 0 1,1 130,0 a 65,65 0 1,1 -130,0 z M 315 565 m -65, 0 a 65,65 0 1,1 130,0 a 65,65 0 1,1 -130,0 z M 315 315 m -65, 0 a 65,65 0 1,1 130,0 a 65,65 0 1,1 -130,0 z M 315 65 m -16, 0 a 16,16 0 1,1 32,0 a 16,16 0 1,1 -32,0 z " horiz-adv-x="625" unicode="Q"/>
<glyph d="M 65 565 m -16, 0 a 16,16 0 1,1 32,0 a 16,16 0 1,1 -32,0 z M 65 315 m -16, 0 a 16,16 0 1,1 32,0 a 16,16 0 1,1 -32,0 z M 65 65 m -16, 0 a 16,16 0 1,1 32,0 a 16,16 0 1,1 -32,0 z M 315 565 m -16, 0 a 16,16 0 1,1 32,0 a 16,16 0 1,1 -32,0 z M 315 315 m -16, 0 a 16,16 0 1,1 32,0 a 16,16 0 1,1 -32,0 z M 315 65 m -65, 0 a 65,65 0 1,1 130,0 a 65,65 0 1,1 -130,0 z " horiz-adv-x="625" unicode=","/>
<glyph d="M 65 565 m -65, 0 a 65,65 0 1,1 130,0 a 65,65 0 1,1 -130,0 z M 65 315 m -16, 0 a 16,16 0 1,1 32,0 a 16,16 0 1,1 -32,0 z M 65 65 m -16, 0 a 16,16 0 1,1 32,0 a 16,16 0 1,1 -32,0 z M 315 565 m -16, 0 a 16,16 0 1,1 32,0 a 16,16 0 1,1 -32,0 z M 315 315 m -16, 0 a 16,16 0 1,1 32,0 a 16,16 0 1,1 -32,0 z M 315 65 m -65, 0 a 65,65 0 1,1 130,0 a 65,65 0 1,1 -130,0 z " horiz-adv-x="625" unicode="*"/>
<glyph d="M 65 565 m -16, 0 a 16,16 0 1,1 32,0 a 16,16 0 1,1 -32,0 z M 65 315 m -65, 0 a 65,65 0 1,1 130,0 a 65,65 0 1,1 -130,0 z M 65 65 m -16, 0 a 16,16 0 1,1 32,0 a 16,16 0 1,1 -32,0 z M 315 565 m -16, 0 a 16,16 0 1,1 32,0 a 16,16 0 1,1 -32,0 z M 315 315 m -16, 0 a 16,16 0 1,1 32,0 a 16,16 0 1,1 -32,0 z M 315 65 m -65, 0 a 65,65 0 1,1 130,0 a 65,65 0 1,1 -130,0 z " horiz-adv-x="625" unicode="5"/>
<glyph d="M 65 565 m -65, 0 a 65,65 0 1,1 130,0 a 65,65 0 1,1 -130,0 z M 65 315 m -65, 0 a 65,65 0 1,1 130,0 a 65,65 0 1,1 -130,0 z M 65 65 m -16, 0 a 16,16 0 1,1 32,0 a 16,16 0 1,1 -32,0 z M 315 565 m -16, 0 a 16,16 0 1,1 32,0 a 16,16 0 1,1 -32,0 z M 315 315 m -16, 0 a 16,16 0 1,1 32,0 a 16,16 0 1,1 -32,0 z M 315 65 m -65, 0 a 65,65 0 1,1 130,0 a 65,65 0 1,1 -130,0 z " horiz-adv-x="625" unicode="&lt;"/>
<glyph d="M 65 565 m -16, 0 a 16,16 0 1,1 32,0 a 16,16 0 1,1 -32,0 z M 65 315 m -16, 0 a 16,16 0 1,1 32,0 a 16,16 0 1,1 -32,0 z M 65 65 m -65, 0 a 65,65 0 1,1 130,0 a 65,65 0 1,1 -130,0 z M 315 565 m -16, 0 a 16,16 0 1,1 32,0 a 16,16 0 1,1 -32,0 z M 315 315 m -16, 0 a 16,16 0 1,1 32,0 a 16,16 0 1,1 -32,0 z M 315 65 m -65, 0 a 65,65 0 1,1 130,0 a 65,65 0 1,1 -130,0 z " horiz-adv-x="625" unicode="-"/>
<glyph d="M 65 565 m -65, 0 a 65,65 0 1,1 130,0 a 65,65 0 1,1 -130,0 z M 65 315 m -16, 0 a 16,16 0 1,1 32,0 a 16,16 0 1,1 -32,0 z M 65 65 m -65, 0 a 65,65 0 1,1 130,0 a 65,65 0 1,1 -130,0 z M 315 565 m -16, 0 a 16,16 0 1,1 32,0 a 16,16 0 1,1 -32,0 z M 315 315 m -16, 0 a 16,16 0 1,1 32,0 a 16,16 0 1,1 -32,0 z M 315 65 m -65, 0 a 65,65 0 1,1 130,0 a 65,65 0 1,1 -130,0 z " horiz-adv-x="625" unicode="U"/>
<glyph d="M 65 565 m -16, 0 a 16,16 0 1,1 32,0 a 16,16 0 1,1 -32,0 z M 65 315 m -65, 0 a 65,65 0 1,1 130,0 a 65,65 0 1,1 -130,0 z M 65 65 m -65, 0 a 65,65 0 1,1 130,0 a 65,65 0 1,1 -130,0 z M 315 565 m -16, 0 a 16,16 0 1,1 32,0 a 16,16 0 1,1 -32,0 z M 315 315 m -16, 0 a 16,16 0 1,1 32,0 a 16,16 0 1,1 -32,0 z M 315 65 m -65, 0 a 65,65 0 1,1 130,0 a 65,65 0 1,1 -130,0 z " horiz-adv-x="625" unicode="8"/>
<glyph d="M 65 565 m -65, 0 a 65,65 0 1,1 130,0 a 65,65 0 1,1 -130,0 z M 65 315 m -65, 0 a 65,65 0 1,1 130,0 a 65,65 0 1,1 -130,0 z M 65 65 m -65, 0 a 65,65 0 1,1 130,0 a 65,65 0 1,1 -130,0 z M 315 565 m -16, 0 a 16,16 0 1,1 32,0 a 16,16 0 1,1 -32,0 z M 315 315 m -16, 0 a 16,16 0 1,1 32,0 a 16,16 0 1,1 -32,0 z M 315 65 m -65, 0 a 65,65 0 1,1 130,0 a 65,65 0 1,1 -130,0 z " horiz-adv-x="625" unicode="V"/>
<glyph d="M 65 565 m -16, 0 a 16,16 0 1,1 32,0 a 16,16 0 1,1 -32,0 z M 65 315 m -16, 0 a 16,16 0 1,1 32,0 a 16,16 0 1,1 -32,0 z M 65 65 m -16, 0 a 16,16 0 1,1 32,0 a 16,16 0 1,1 -32,0 z M 315 565 m -65, 0 a 65,65 0 1,1 130,0 a 65,65 0 1,1 -130,0 z M 315 315 m -16, 0 a 16,16 0 1,1 32,0 a 16,16 0 1,1 -32,0 z M 315 65 m -65, 0 a 65,65 0 1,1 130,0 a 65,65 0 1,1 -130,0 z " horiz-adv-x="625" unicode="."/>
<glyph d="M 65 565 m -65, 0 a 65,65 0 1,1 130,0 a 65,65 0 1,1 -130,0 z M 65 315 m -16, 0 a 16,16 0 1,1 32,0 a 16,16 0 1,1 -32,0 z M 65 65 m -16, 0 a 16,16 0 1,1 32,0 a 16,16 0 1,1 -32,0 z M 315 565 m -65, 0 a 65,65 0 1,1 130,0 a 65,65 0 1,1 -130,0 z M 315 315 m -16, 0 a 16,16 0 1,1 32,0 a 16,16 0 1,1 -32,0 z M 315 65 m -65, 0 a 65,65 0 1,1 130,0 a 65,65 0 1,1 -130,0 z " horiz-adv-x="625" unicode="%"/>
<glyph d="M 65 565 m -16, 0 a 16,16 0 1,1 32,0 a 16,16 0 1,1 -32,0 z M 65 315 m -65, 0 a 65,65 0 1,1 130,0 a 65,65 0 1,1 -130,0 z M 65 65 m -16, 0 a 16,16 0 1,1 32,0 a 16,16 0 1,1 -32,0 z M 315 565 m -65, 0 a 65,65 0 1,1 130,0 a 65,65 0 1,1 -130,0 z M 315 315 m -16, 0 a 16,16 0 1,1 32,0 a 16,16 0 1,1 -32,0 z M 315 65 m -65, 0 a 65,65 0 1,1 130,0 a 65,65 0 1,1 -130,0 z " horiz-adv-x="625" unicode="["/>
<glyph d="M 65 565 m -65, 0 a 65,65 0 1,1 130,0 a 65,65 0 1,1 -130,0 z M 65 315 m -65, 0 a 65,65 0 1,1 130,0 a 65,65 0 1,1 -130,0 z M 65 65 m -16, 0 a 16,16 0 1,1 32,0 a 16,16 0 1,1 -32,0 z M 315 565 m -65, 0 a 65,65 0 1,1 130,0 a 65,65 0 1,1 -130,0 z M 315 315 m -16, 0 a 16,16 0 1,1 32,0 a 16,16 0 1,1 -32,0 z M 315 65 m -65, 0 a 65,65 0 1,1 130,0 a 65,65 0 1,1 -130,0 z " horiz-adv-x="625" unicode="$"/>
<glyph d="M 65 565 m -16, 0 a 16,16 0 1,1 32,0 a 16,16 0 1,1 -32,0 z M 65 315 m -16, 0 a 16,16 0 1,1 32,0 a 16,16 0 1,1 -32,0 z M 65 65 m -65, 0 a 65,65 0 1,1 130,0 a 65,65 0 1,1 -130,0 z M 315 565 m -65, 0 a 65,65 0 1,1 130,0 a 65,65 0 1,1 -130,0 z M 315 315 m -16, 0 a 16,16 0 1,1 32,0 a 16,16 0 1,1 -32,0 z M 315 65 m -65, 0 a 65,65 0 1,1 130,0 a 65,65 0 1,1 -130,0 z " horiz-adv-x="625" unicode="+"/>
<glyph d="M 65 565 m -65, 0 a 65,65 0 1,1 130,0 a 65,65 0 1,1 -130,0 z M 65 315 m -16, 0 a 16,16 0 1,1 32,0 a 16,16 0 1,1 -32,0 z M 65 65 m -65, 0 a 65,65 0 1,1 130,0 a 65,65 0 1,1 -130,0 z M 315 565 m -65, 0 a 65,65 0 1,1 130,0 a 65,65 0 1,1 -130,0 z M 315 315 m -16, 0 a 16,16 0 1,1 32,0 a 16,16 0 1,1 -32,0 z M 315 65 m -65, 0 a 65,65 0 1,1 130,0 a 65,65 0 1,1 -130,0 z " horiz-adv-x="625" unicode="X"/>
<glyph d="M 65 565 m -16, 0 a 16,16 0 1,1 32,0 a 16,16 0 1,1 -32,0 z M 65 315 m -65, 0 a 65,65 0 1,1 130,0 a 65,65 0 1,1 -130,0 z M 65 65 m -65, 0 a 65,65 0 1,1 130,0 a 65,65 0 1,1 -130,0 z M 315 565 m -65, 0 a 65,65 0 1,1 130,0 a 65,65 0 1,1 -130,0 z M 315 315 m -16, 0 a 16,16 0 1,1 32,0 a 16,16 0 1,1 -32,0 z M 315 65 m -65, 0 a 65,65 0 1,1 130,0 a 65,65 0 1,1 -130,0 z " horiz-adv-x="625" unicode="!"/>
<glyph d="M 65 565 m -65, 0 a 65,65 0 1,1 130,0 a 65,65 0 1,1 -130,0 z M 65 315 m -65, 0 a 65,65 0 1,1 130,0 a 65,65 0 1,1 -130,0 z M 65 65 m -65, 0 a 65,65 0 1,1 130,0 a 65,65 0 1,1 -130,0 z M 315 565 m -65, 0 a 65,65 0 1,1 130,0 a 65,65 0 1,1 -130,0 z M 315 315 m -16, 0 a 16,16 0 1,1 32,0 a 16,16 0 1,1 -32,0 z M 315 65 m -65, 0 a 65,65 0 1,1 130,0 a 65,65 0 1,1 -130,0 z " horiz-adv-x="625" unicode="&amp;"/>
<glyph d="M 65 565 m -16, 0 a 16,16 0 1,1 32,0 a 16,16 0 1,1 -32,0 z M 65 315 m -16, 0 a 16,16 0 1,1 32,0 a 16,16 0 1,1 -32,0 z M 65 65 m -16, 0 a 16,16 0 1,1 32,0 a 16,16 0 1,1 -32,0 z M 315 565 m -16, 0 a 16,16 0 1,1 32,0 a 16,16 0 1,1 -32,0 z M 315 315 m -65, 0 a 65,65 0 1,1 130,0 a 65,65 0 1,1 -130,0 z M 315 65 m -65, 0 a 65,65 0 1,1 130,0 a 65,65 0 1,1 -130,0 z " horiz-adv-x="625" unicode=";"/>
<glyph d="M 65 565 m -65, 0 a 65,65 0 1,1 130,0 a 65,65 0 1,1 -130,0 z M 65 315 m -16, 0 a 16,16 0 1,1 32,0 a 16,16 0 1,1 -32,0 z M 65 65 m -16, 0 a 16,16 0 1,1 32,0 a 16,16 0 1,1 -32,0 z M 315 565 m -16, 0 a 16,16 0 1,1 32,0 a 16,16 0 1,1 -32,0 z M 315 315 m -65, 0 a 65,65 0 1,1 130,0 a 65,65 0 1,1 -130,0 z M 315 65 m -65, 0 a 65,65 0 1,1 130,0 a 65,65 0 1,1 -130,0 z " horiz-adv-x="625" unicode=":"/>
<glyph d="M 65 565 m -16, 0 a 16,16 0 1,1 32,0 a 16,16 0 1,1 -32,0 z M 65 315 m -65, 0 a 65,65 0 1,1 130,0 a 65,65 0 1,1 -130,0 z M 65 65 m -16, 0 a 16,16 0 1,1 32,0 a 16,16 0 1,1 -32,0 z M 315 565 m -16, 0 a 16,16 0 1,1 32,0 a 16,16 0 1,1 -32,0 z M 315 315 m -65, 0 a 65,65 0 1,1 130,0 a 65,65 0 1,1 -130,0 z M 315 65 m -65, 0 a 65,65 0 1,1 130,0 a 65,65 0 1,1 -130,0 z " horiz-adv-x="625" unicode="4"/>
<glyph d="M 65 565 m -65, 0 a 65,65 0 1,1 130,0 a 65,65 0 1,1 -130,0 z M 65 315 m -65, 0 a 65,65 0 1,1 130,0 a 65,65 0 1,1 -130,0 z M 65 65 m -16, 0 a 16,16 0 1,1 32,0 a 16,16 0 1,1 -32,0 z M 315 565 m -16, 0 a 16,16 0 1,1 32,0 a 16,16 0 1,1 -32,0 z M 315 315 m -65, 0 a 65,65 0 1,1 130,0 a 65,65 0 1,1 -130,0 z M 315 65 m -65, 0 a 65,65 0 1,1 130,0 a 65,65 0 1,1 -130,0 z " horiz-adv-x="625" unicode="\"/>
<glyph d="M 65 565 m -16, 0 a 16,16 0 1,1 32,0 a 16,16 0 1,1 -32,0 z M 65 315 m -16, 0 a 16,16 0 1,1 32,0 a 16,16 0 1,1 -32,0 z M 65 65 m -65, 0 a 65,65 0 1,1 130,0 a 65,65 0 1,1 -130,0 z M 315 565 m -16, 0 a 16,16 0 1,1 32,0 a 16,16 0 1,1 -32,0 z M 315 315 m -65, 0 a 65,65 0 1,1 130,0 a 65,65 0 1,1 -130,0 z M 315 65 m -65, 0 a 65,65 0 1,1 130,0 a 65,65 0 1,1 -130,0 z " horiz-adv-x="625" unicode="0"/>
<glyph d="M 65 565 m -65, 0 a 65,65 0 1,1 130,0 a 65,65 0 1,1 -130,0 z M 65 315 m -16, 0 a 16,16 0 1,1 32,0 a 16,16 0 1,1 -32,0 z M 65 65 m -65, 0 a 65,65 0 1,1 130,0 a 65,65 0 1,1 -130,0 z M 315 565 m -16, 0 a 16,16 0 1,1 32,0 a 16,16 0 1,1 -32,0 z M 315 315 m -65, 0 a 65,65 0 1,1 130,0 a 65,65 0 1,1 -130,0 z M 315 65 m -65, 0 a 65,65 0 1,1 130,0 a 65,65 0 1,1 -130,0 z " horiz-adv-x="625" unicode="Z"/>
<glyph d="M 65 565 m -16, 0 a 16,16 0 1,1 32,0 a 16,16 0 1,1 -32,0 z M 65 315 m -65, 0 a 65,65 0 1,1 130,0 a 65,65 0 1,1 -130,0 z M 65 65 m -65, 0 a 65,65 0 1,1 130,0 a 65,65 0 1,1 -130,0 z M 315 565 m -16, 0 a 16,16 0 1,1 32,0 a 16,16 0 1,1 -32,0 z M 315 315 m -65, 0 a 65,65 0 1,1 130,0 a 65,65 0 1,1 -130,0 z M 315 65 m -65, 0 a 65,65 0 1,1 130,0 a 65,65 0 1,1 -130,0 z " horiz-adv-x="625" unicode="7"/>
<glyph d="M 65 565 m -65, 0 a 65,65 0 1,1 130,0 a 65,65 0 1,1 -130,0 z M 65 315 m -65, 0 a 65,65 0 1,1 130,0 a 65,65 0 1,1 -130,0 z M 65 65 m -65, 0 a 65,65 0 1,1 130,0 a 65,65 0 1,1 -130,0 z M 315 565 m -16, 0 a 16,16 0 1,1 32,0 a 16,16 0 1,1 -32,0 z M 315 315 m -65, 0 a 65,65 0 1,1 130,0 a 65,65 0 1,1 -130,0 z M 315 65 m -65, 0 a 65,65 0 1,1 130,0 a 65,65 0 1,1 -130,0 z " horiz-adv-x="625" unicode="("/>
<glyph d="M 65 565 m -16, 0 a 16,16 0 1,1 32,0 a 16,16 0 1,1 -32,0 z M 65 315 m -16, 0 a 16,16 0 1,1 32,0 a 16,16 0 1,1 -32,0 z M 65 65 m -16, 0 a 16,16 0 1,1 32,0 a 16,16 0 1,1 -32,0 z M 315 565 m -65, 0 a 65,65 0 1,1 130,0 a 65,65 0 1,1 -130,0 z M 315 315 m -65, 0 a 65,65 0 1,1 130,0 a 65,65 0 1,1 -130,0 z M 315 65 m -65, 0 a 65,65 0 1,1 130,0 a 65,65 0 1,1 -130,0 z " horiz-adv-x="625" unicode="_"/>
<glyph d="M 65 565 m -65, 0 a 65,65 0 1,1 130,0 a 65,65 0 1,1 -130,0 z M 65 315 m -16, 0 a 16,16 0 1,1 32,0 a 16,16 0 1,1 -32,0 z M 65 65 m -16, 0 a 16,16 0 1,1 32,0 a 16,16 0 1,1 -32,0 z M 315 565 m -65, 0 a 65,65 0 1,1 130,0 a 65,65 0 1,1 -130,0 z M 315 315 m -65, 0 a 65,65 0 1,1 130,0 a 65,65 0 1,1 -130,0 z M 315 65 m -65, 0 a 65,65 0 1,1 130,0 a 65,65 0 1,1 -130,0 z " horiz-adv-x="625" unicode="?"/>
<glyph d="M 65 565 m -16, 0 a 16,16 0 1,1 32,0 a 16,16 0 1,1 -32,0 z M 65 315 m -65, 0 a 65,65 0 1,1 130,0 a 65,65 0 1,1 -130,0 z M 65 65 m -16, 0 a 16,16 0 1,1 32,0 a 16,16 0 1,1 -32,0 z M 315 565 m -65, 0 a 65,65 0 1,1 130,0 a 65,65 0 1,1 -130,0 z M 315 315 m -65, 0 a 65,65 0 1,1 130,0 a 65,65 0 1,1 -130,0 z M 315 65 m -65, 0 a 65,65 0 1,1 130,0 a 65,65 0 1,1 -130,0 z " horiz-adv-x="625" unicode="W"/>
<glyph d="M 65 565 m -65, 0 a 65,65 0 1,1 130,0 a 65,65 0 1,1 -130,0 z M 65 315 m -65, 0 a 65,65 0 1,1 130,0 a 65,65 0 1,1 -130,0 z M 65 65 m -16, 0 a 16,16 0 1,1 32,0 a 16,16 0 1,1 -32,0 z M 315 565 m -65, 0 a 65,65 0 1,1 130,0 a 65,65 0 1,1 -130,0 z M 315 315 m -65, 0 a 65,65 0 1,1 130,0 a 65,65 0 1,1 -130,0 z M 315 65 m -65, 0 a 65,65 0 1,1 130,0 a 65,65 0 1,1 -130,0 z " horiz-adv-x="625" unicode="]"/>
<glyph d="M 65 565 m -16, 0 a 16,16 0 1,1 32,0 a 16,16 0 1,1 -32,0 z M 65 315 m -16, 0 a 16,16 0 1,1 32,0 a 16,16 0 1,1 -32,0 z M 65 65 m -65, 0 a 65,65 0 1,1 130,0 a 65,65 0 1,1 -130,0 z M 315 565 m -65, 0 a 65,65 0 1,1 130,0 a 65,65 0 1,1 -130,0 z M 315 315 m -65, 0 a 65,65 0 1,1 130,0 a 65,65 0 1,1 -130,0 z M 315 65 m -65, 0 a 65,65 0 1,1 130,0 a 65,65 0 1,1 -130,0 z " horiz-adv-x="625" unicode="#"/>
<glyph d="M 65 565 m -65, 0 a 65,65 0 1,1 130,0 a 65,65 0 1,1 -130,0 z M 65 315 m -16, 0 a 16,16 0 1,1 32,0 a 16,16 0 1,1 -32,0 z M 65 65 m -65, 0 a 65,65 0 1,1 130,0 a 65,65 0 1,1 -130,0 z M 315 565 m -65, 0 a 65,65 0 1,1 130,0 a 65,65 0 1,1 -130,0 z M 315 315 m -65, 0 a 65,65 0 1,1 130,0 a 65,65 0 1,1 -130,0 z M 315 65 m -65, 0 a 65,65 0 1,1 130,0 a 65,65 0 1,1 -130,0 z " horiz-adv-x="625" unicode="Y"/>
<glyph d="M 65 565 m -16, 0 a 16,16 0 1,1 32,0 a 16,16 0 1,1 -32,0 z M 65 315 m -65, 0 a 65,65 0 1,1 130,0 a 65,65 0 1,1 -130,0 z M 65 65 m -65, 0 a 65,65 0 1,1 130,0 a 65,65 0 1,1 -130,0 z M 315 565 m -65, 0 a 65,65 0 1,1 130,0 a 65,65 0 1,1 -130,0 z M 315 315 m -65, 0 a 65,65 0 1,1 130,0 a 65,65 0 1,1 -130,0 z M 315 65 m -65, 0 a 65,65 0 1,1 130,0 a 65,65 0 1,1 -130,0 z " horiz-adv-x="625" unicode=")"/>
<glyph d="M 65 565 m -65, 0 a 65,65 0 1,1 130,0 a 65,65 0 1,1 -130,0 z M 65 315 m -65, 0 a 65,65 0 1,1 130,0 a 65,65 0 1,1 -130,0 z M 65 65 m -65, 0 a 65,65 0 1,1 130,0 a 65,65 0 1,1 -130,0 z M 315 565 m -65, 0 a 65,65 0 1,1 130,0 a 65,65 0 1,1 -130,0 z M 315 315 m -65, 0 a 65,65 0 1,1 130,0 a 65,65 0 1,1 -130,0 z M 315 65 m -65, 0 a 65,65 0 1,1 130,0 a 65,65 0 1,1 -130,0 z " horiz-adv-x="625" unicode="="/>
</font>
</defs>
</svg>
